<svg xmlns="http://www.w3.org/2000/svg" viewBox="0 0 128 128" role="img" aria-label="Catudy logo">
  <defs>
    <linearGradient id="mark" x1="34" x2="98" y1="20" y2="104" gradientUnits="userSpaceOnUse">
      <stop stop-color="#bba6f3"/>
      <stop offset=".48" stop-color="#8fc9ff"/>
      <stop offset="1" stop-color="#7561c8"/>
    </linearGradient>
  </defs>
  <rect width="128" height="128" rx="28" fill="#11131a"/>
  <path fill="url(#mark)" stroke="#4f4599" stroke-linejoin="round" stroke-width="4" d="M39 41 51 18l12 23Z"/>
  <path fill="url(#mark)" stroke="#4f4599" stroke-linejoin="round" stroke-width="4" d="M62 41 74 18l12 23Z"/>
  <path fill="#eadfff" opacity=".9" d="M46 38 51 28l7 10Z"/>
  <path fill="#eadfff" opacity=".9" d="M68 38 74 28l7 10Z"/>
  <path fill="url(#mark)" transform="translate(0 6.5) scale(1 .83)" d="M29 72c0-23 15-39 36-39 15 0 27 8 32 20l-17 8c-3-6-8-10-15-10-10 0-17 8-17 21s7 21 17 21c7 0 13-4 16-11l17 8c-6 13-18 21-34 21-21 0-35-16-35-39Z"/>
</svg>
