<svg xmlns="http://www.w3.org/2000/svg" viewBox="0 0 640 480" role="img" aria-label="Catudy stats ekranı yer tutucu görseli">
  <rect width="640" height="480" fill="#11131a"/>
  <rect x="58" y="54" width="524" height="372" rx="30" fill="#f6f7f2"/>
  <rect x="92" y="88" width="164" height="24" rx="12" fill="#14161d"/>
  <rect x="92" y="140" width="180" height="104" rx="22" fill="#18a985"/>
  <rect x="116" y="168" width="72" height="14" rx="7" fill="#10211d"/>
  <rect x="116" y="196" width="112" height="20" rx="10" fill="#ffffff" opacity=".78"/>
  <rect x="300" y="140" width="248" height="104" rx="22" fill="#ffffff"/>
  <path d="M326 214c22-46 46-7 68-36 27-36 48 10 74-29 18-27 33-12 54-40" fill="none" stroke="#4568ff" stroke-width="12" stroke-linecap="round"/>
  <rect x="92" y="276" width="456" height="104" rx="22" fill="#ffffff"/>
  <rect x="120" y="328" width="34" height="28" rx="8" fill="#18a985"/>
  <rect x="178" y="304" width="34" height="52" rx="8" fill="#f6c85f"/>
  <rect x="236" y="288" width="34" height="68" rx="8" fill="#ff674d"/>
  <rect x="294" y="316" width="34" height="40" rx="8" fill="#4568ff"/>
  <rect x="352" y="294" width="34" height="62" rx="8" fill="#18a985"/>
  <rect x="410" y="306" width="34" height="50" rx="8" fill="#f6c85f"/>
  <rect x="468" y="282" width="34" height="74" rx="8" fill="#ff674d"/>
</svg>
